<svg xmlns="http://www.w3.org/2000/svg" viewBox="0 0 128 128">
  <defs>
    <linearGradient id="g" x1="0" y1="0" x2="1" y2="1">
      <stop offset="0" stop-color="#2563eb"/>
      <stop offset="1" stop-color="#1d4ed8"/>
    </linearGradient>
  </defs>
  <circle cx="64" cy="64" r="60" fill="url(#g)"/>
  <circle cx="64" cy="64" r="60" fill="none" stroke="rgba(255,255,255,0.25)" stroke-width="6"/>
  <path
    d="M42 78.5c0-14.8 9.1-28.3 24.5-28.3 4.9 0 9.8 1.4 13.3 3.8v9.2c-3.4-2.8-7.7-4.5-12.7-4.5-9.4 0-15.5 8-15.5 19.6 0 11.4 5.9 19.6 15.6 19.6 4.3 0 8.2-1.3 11.3-3.4V83.3H69V75.6h17.9V98c-4.4 4.1-11.1 7.3-20.3 7.3C51.1 105.3 42 91.9 42 78.5Z"
    fill="#fff"
    opacity="0.95"
  />
</svg>


